<svg xmlns="http://www.w3.org/2000/svg" width="20" height="19" fill="none" viewBox="0 0 20 19">
    <g clip-path="url(#clip0)">
        <path fill="#00B3BD" fill-rule="evenodd" d="M10.02 3.914l-.868-.892C7.115.928 3.381 1.651 2.032 4.283c-.632 1.238-.775 3.026.38 5.308 1.114 2.197 3.43 4.828 7.608 7.694 4.178-2.866 6.493-5.497 7.607-7.694 1.156-2.283 1.014-4.07.38-5.308-1.348-2.632-5.083-3.356-7.12-1.262l-.867.893zm0 14.83C-8.536 6.48 4.307-3.092 9.807 1.97c.072.067.144.136.213.207.068-.071.14-.14.213-.205 5.499-5.067 18.343 4.506-.213 16.77z" clip-rule="evenodd"/>
    </g>
    <defs>
        <clipPath id="clip0">
            <path fill="#fff" d="M0 0H19.363V18.156H0z" transform="translate(.338 .588)"/>
        </clipPath>
    </defs>
</svg>
