<svg xmlns="http://www.w3.org/2000/svg" width="16" height="15" fill="none" viewBox="0 0 16 15">
    <g clip-path="url(#clip0)">
        <path fill="#000" d="M3.61 14.927c-.385.195-.823-.147-.745-.582l.83-4.651-3.523-3.3c-.33-.309-.158-.873.283-.934l4.898-.685L7.537.521c.197-.384.73-.384.926 0l2.184 4.254 4.898.685c.441.06.612.625.283.934l-3.523 3.3.83 4.65c.078.436-.36.778-.746.583L8 12.709l-4.39 2.218h.002z"/>
    </g>
    <defs>
        <clipPath id="clip0">
            <path fill="#fff" d="M0 0H16V14.75H0z" transform="translate(0 .233)"/>
        </clipPath>
    </defs>
</svg>
