<svg xmlns="http://www.w3.org/2000/svg" width="15" height="21" fill="none" viewBox="0 0 15 21">
    <g clip-path="url(#clip0)">
        <path fill="#E23070" fill-rule="evenodd" d="M7.5 20.233s7.5-7.108 7.5-12.5c0-1.99-.79-3.897-2.197-5.303C11.397 1.023 9.49.233 7.5.233c-1.99 0-3.897.79-5.303 2.197C.79 3.836 0 5.744 0 7.733c0 5.392 7.5 12.5 7.5 12.5zm0-8.75c.995 0 1.948-.395 2.652-1.098.703-.704 1.098-1.658 1.098-2.652 0-.995-.395-1.948-1.098-2.652-.704-.703-1.657-1.098-2.652-1.098-.995 0-1.948.395-2.652 1.098-.703.704-1.098 1.657-1.098 2.652 0 .994.395 1.948 1.098 2.652.704.703 1.657 1.098 2.652 1.098z" clip-rule="evenodd"/>
    </g>
    <defs>
        <clipPath id="clip0">
            <path fill="#fff" d="M0 0H15V20H0z" transform="translate(0 .233)"/>
        </clipPath>
    </defs>
</svg>
