<svg width="36" height="36" viewBox="0 0 36 36" fill="none" xmlns="http://www.w3.org/2000/svg">
<path fill-rule="evenodd" clip-rule="evenodd" d="M17.9999 34.3295C26.9917 34.3538 34.3152 27.0821 34.3517 18.0877C34.3882 9.09369 27.1239 1.78262 18.1321 1.75832C9.13589 1.734 1.81685 9.00565 1.78035 17.9996C1.74384 26.9941 9.00371 34.3052 17.9999 34.3295Z" fill="#20534A" fill-opacity="0.38"/>
<path fill-rule="evenodd" clip-rule="evenodd" d="M18.0001 24.8756C21.7861 24.8858 24.8696 21.8241 24.885 18.0369C24.9004 14.25 21.8417 11.1716 18.0557 11.1614C14.2678 11.1512 11.1861 14.2129 11.1708 17.9999C11.1554 21.787 14.2122 24.8653 18.0001 24.8756Z" fill="#30E2C2" stroke="#24796A"/>
<path fill-rule="evenodd" clip-rule="evenodd" d="M17.9999 24.8756C21.786 24.8858 24.8695 21.8241 24.8849 18.0369C24.9003 14.25 21.8416 11.1717 18.0556 11.1614C14.2677 11.1512 11.186 14.2129 11.1707 17.9999C11.1553 21.787 14.2121 24.8654 17.9999 24.8756Z" fill="#143E36" stroke="#106354"/>
</svg>
