<svg xmlns="http://www.w3.org/2000/svg" width="163" height="48" fill="none" viewBox="0 0 163 48">
    <path fill="#FFF" d="M.547 29.969l1.873-.657c.009 0 .027.078.055.233.036.155.095.355.177.601.091.247.21.52.356.82.146.302.35.602.615.903.273.3.588.574.943.82.784.556 1.819.834 3.104.834 1.285 0 2.242-.35 2.871-1.052.629-.702.943-1.563.943-2.584 0-1.03-.2-1.837-.601-2.42-.392-.593-1.085-1.094-2.078-1.504-.292-.119-.675-.26-1.149-.424l-1.299-.451c-2.25-.748-3.764-1.704-4.539-2.871-.537-.811-.806-1.76-.806-2.844 0-1.285.51-2.484 1.531-3.596.483-.51 1.098-.925 1.846-1.244.747-.319 1.53-.478 2.351-.478.83 0 1.559.114 2.188.341.638.22 1.148.493 1.531.82.392.329.743.707 1.053 1.136.31.428.533.81.67 1.148l.396 1.012c.119.319.192.506.219.56l-1.777.684c-.019-.046-.064-.187-.137-.424-.064-.246-.123-.447-.178-.602-.046-.154-.132-.369-.26-.642-.118-.274-.246-.501-.383-.684-.127-.191-.3-.396-.519-.615-.21-.228-.438-.41-.684-.547-.601-.328-1.28-.492-2.037-.492-1.12 0-2.032.333-2.734.998-.702.656-1.053 1.531-1.053 2.625 0 1.194.31 2.033.93 2.516.337.264.62.455.848.574.236.118.51.237.82.355.319.11.551.196.697.26.146.055.433.146.861.274l1.149.355c2.114.647 3.568 1.609 4.361 2.885.538.866.807 1.914.807 3.144 0 .894-.283 1.828-.848 2.803-.702 1.24-1.768 2.06-3.2 2.461-.537.146-1.166.219-1.886.219-.71 0-1.413-.096-2.105-.287-.693-.192-1.276-.442-1.75-.752-.465-.31-.889-.652-1.272-1.026-.373-.373-.674-.747-.902-1.12-.42-.684-.716-1.277-.889-1.778l-.11-.287zM15.9 40.605V20.576h1.805v2.242c.219-.41.579-.82 1.08-1.23.948-.775 1.937-1.162 2.967-1.162 1.914 0 3.372 1.048 4.375 3.144.574 1.203.861 2.52.861 3.951 0 2.516-.615 4.517-1.845 6.002-.894 1.085-2.083 1.627-3.569 1.627-.838 0-1.65-.25-2.433-.752-.784-.51-1.263-.948-1.436-1.312v7.52H15.9zm1.805-9.078c.42.602.93 1.103 1.531 1.504.602.392 1.172.588 1.71.588.546 0 1.002-.05 1.366-.15.374-.11.739-.301 1.094-.575.365-.282.675-.647.93-1.093.565-.985.848-2.411.848-4.28 0-2.278-.53-3.882-1.586-4.812-.565-.501-1.276-.752-2.133-.752-1.149 0-2.151.483-3.008 1.45-.219.245-.47.56-.752.943v7.177zM29.053 27.7c0-2.206.492-3.97 1.476-5.29.994-1.322 2.38-1.983 4.156-1.983 1.778 0 3.154.665 4.13 1.996.984 1.33 1.476 3.108 1.476 5.332 0 2.224-.497 4.015-1.49 5.373-.985 1.358-2.356 2.037-4.116 2.037-1.795 0-3.19-.702-4.183-2.105-.966-1.377-1.45-3.163-1.45-5.36zm1.804.082c0 2.89.752 4.722 2.256 5.496.456.237.98.356 1.572.356.593 0 1.117-.119 1.573-.356.465-.237.834-.542 1.107-.916.274-.373.497-.824.67-1.353.3-.92.451-1.992.451-3.213 0-3.892-1.271-5.838-3.814-5.838s-3.815 1.941-3.815 5.824zm10.65-5.674v-1.53h2.434v-5.265h1.805v5.264h3.309v1.531h-3.309v9.147c0 .92.141 1.55.424 1.887.282.337.747.506 1.395.506.264 0 .578-.023.943-.069.364-.045.547-.073.547-.082v1.354c-.602.218-1.19.328-1.764.328-.565 0-.952-.014-1.162-.041-.21-.028-.465-.114-.766-.26-.3-.146-.547-.351-.738-.615-.456-.638-.684-1.64-.684-3.008v-9.147h-2.433zM73.547 29.969l1.873-.657c.009 0 .027.078.055.233.036.155.095.355.177.601.091.247.21.52.356.82.146.302.35.602.615.903.273.3.588.574.943.82.784.556 1.819.834 3.104.834 1.285 0 2.242-.35 2.871-1.052.629-.702.943-1.563.943-2.584 0-1.03-.2-1.837-.601-2.42-.392-.593-1.085-1.094-2.078-1.504-.292-.119-.675-.26-1.149-.424l-1.299-.451c-2.25-.748-3.764-1.704-4.539-2.871-.537-.811-.806-1.76-.806-2.844 0-1.285.51-2.484 1.531-3.596.483-.51 1.098-.925 1.846-1.244.747-.319 1.53-.478 2.351-.478.83 0 1.559.114 2.188.341.638.22 1.148.493 1.531.82.392.329.743.707 1.053 1.136.31.428.533.81.67 1.148l.396 1.012c.119.319.191.506.219.56l-1.778.684c-.018-.046-.063-.187-.136-.424-.064-.246-.123-.447-.178-.602-.046-.154-.132-.369-.26-.642-.118-.274-.246-.501-.382-.684-.128-.191-.301-.396-.52-.615-.21-.228-.438-.41-.684-.547-.601-.328-1.28-.492-2.037-.492-1.12 0-2.032.333-2.734.998-.702.656-1.053 1.531-1.053 2.625 0 1.194.31 2.033.93 2.516.337.264.62.455.847.574.237.118.51.237.82.355.32.11.552.196.698.26.146.055.433.146.861.274l1.149.355c2.114.647 3.568 1.609 4.361 2.885.538.866.807 1.914.807 3.144 0 .894-.283 1.828-.848 2.803-.702 1.24-1.768 2.06-3.2 2.461-.537.146-1.166.219-1.886.219-.71 0-1.412-.096-2.105-.287-.693-.192-1.276-.442-1.75-.752-.465-.31-.889-.652-1.272-1.026-.373-.373-.674-.747-.902-1.12-.42-.684-.716-1.277-.889-1.778l-.11-.287zM88.9 35V14.287h1.805v8.654c1.349-1.285 2.457-2.06 3.322-2.324.447-.127.912-.191 1.395-.191 1.048 0 1.91.319 2.584.957.674.638 1.012 1.595 1.012 2.87V35h-1.805V24.254c0-.684-.246-1.235-.738-1.654-.483-.429-1.008-.643-1.573-.643-1.349 0-2.748.788-4.197 2.365V35H88.9zm12.661-7.3c0-2.206.492-3.97 1.476-5.292.994-1.321 2.379-1.982 4.156-1.982 1.778 0 3.154.665 4.129 1.996.985 1.33 1.477 3.108 1.477 5.332 0 2.224-.497 4.015-1.49 5.373-.985 1.358-2.357 2.037-4.116 2.037-1.795 0-3.19-.702-4.183-2.105-.966-1.377-1.449-3.163-1.449-5.36zm1.804.081c0 2.89.752 4.722 2.256 5.496.456.237.98.356 1.572.356.593 0 1.117-.119 1.573-.356.464-.237.834-.542 1.107-.916.273-.373.497-.824.67-1.353.301-.92.451-1.992.451-3.213 0-3.892-1.271-5.838-3.814-5.838s-3.815 1.941-3.815 5.824zm12.223 12.825v-20.03h1.805v2.242c.218-.41.578-.82 1.08-1.23.948-.775 1.937-1.162 2.966-1.162 1.915 0 3.373 1.048 4.375 3.144.575 1.203.862 2.52.862 3.951 0 2.516-.615 4.517-1.846 6.002-.893 1.085-2.083 1.627-3.568 1.627-.839 0-1.65-.25-2.434-.752-.784-.51-1.262-.948-1.435-1.312v7.52h-1.805zm1.805-9.079c.419.602.929 1.103 1.531 1.504.601.392 1.171.588 1.709.588.547 0 1.002-.05 1.367-.15.374-.11.738-.301 1.094-.575.364-.282.674-.647.929-1.093.566-.985.848-2.411.848-4.28 0-2.278-.529-3.882-1.586-4.812-.565-.501-1.276-.752-2.133-.752-1.148 0-2.151.483-3.007 1.45-.219.245-.47.56-.752.943v7.177zM44 37v-1h12v1H44zM56 37v-1h12v1H56zM68 37v-1h12v1H68z"/>
    <path fill="#FFF" d="M59 29.744c0-.401.047-.75.14-1.045.093-.3.238-.565.435-.794.202-.234.43-.44.684-.618.254-.178.57-.34.948-.485.69-.262 1.531-.498 2.526-.71 0-.88-.158-1.468-.474-1.763-.28-.262-.687-.393-1.22-.393-.653 0-1.215.267-1.687.802-.202.217-.342.412-.42.585l-.738-.526c.58-1.198 1.568-1.797 2.961-1.797 1.25 0 2.047.515 2.394 1.546.14.418.21.925.21 1.52v4.589c0 .161.029.381.086.66.057.278.108.47.155.576h-1.034c-.155-.083-.233-.551-.233-1.403-.73 1.008-1.536 1.512-2.417 1.512-.974 0-1.65-.368-2.028-1.103-.192-.373-.288-.758-.288-1.153zm1.22-.961c-.13.256-.194.59-.194 1.002 0 .413.135.73.404.953.27.217.567.326.894.326.331 0 .622-.053.87-.159.254-.106.485-.242.692-.41.378-.306.66-.579.847-.818v-2.65c-.984.274-1.567.441-1.748.502-.913.318-1.5.736-1.765 1.254z"/>
    <path fill="#30E2C2" fill-rule="evenodd" d="M61.5 48S73 36.628 73 28c0-3.183-1.212-6.235-3.368-8.485C67.475 17.265 64.55 16 61.5 16s-5.975 1.264-8.132 3.515C51.212 21.765 50 24.817 50 28c0 8.628 11.5 20 11.5 20zm0-14c1.525 0 2.987-.632 4.066-1.757C66.644 31.117 67.25 29.59 67.25 28c0-1.591-.606-3.117-1.684-4.243C64.487 22.632 63.025 22 61.5 22s-2.987.632-4.066 1.757C56.356 24.883 55.75 26.41 55.75 28c0 1.591.606 3.117 1.684 4.243C58.513 33.368 59.975 34 61.5 34z" clip-rule="evenodd"/>
</svg>
