<svg xmlns="http://www.w3.org/2000/svg" width="32" height="32" fill="none" viewBox="0 0 32 32">
    <g clip-path="url(#clip0)">
        <path fill="white" fill-rule="evenodd" d="M29.167 31.834s2.582 0 2.582-2.583c0-2.582-2.582-10.328-15.49-10.328C3.348 18.923.767 26.669.767 29.25c0 2.582 2.581 2.582 2.581 2.582h25.818zM3.362 29.396v-.005.005zm.044-.145H29.11l.036-.005.021-.005c-.003-.635-.398-2.546-2.148-4.297-1.683-1.683-4.851-3.44-10.76-3.44-5.913 0-9.078 1.757-10.762 3.44-1.75 1.751-2.143 3.662-2.148 4.297l.057.01zm25.75.145v-.005.005zM16.259 13.758c1.37 0 2.683-.544 3.651-1.512.969-.969 1.513-2.282 1.513-3.652s-.544-2.683-1.513-3.651c-.968-.969-2.281-1.513-3.65-1.513-1.37 0-2.684.544-3.652 1.513-.968.968-1.512 2.282-1.512 3.651 0 1.37.544 2.683 1.512 3.652.968.968 2.282 1.512 3.651 1.512zm7.745-5.164c0 2.055-.816 4.025-2.268 5.478-1.453 1.453-3.423 2.269-5.477 2.269-2.054 0-4.024-.817-5.477-2.27C9.33 12.62 8.513 10.65 8.513 8.595c0-2.054.816-4.025 2.268-5.477 1.453-1.453 3.423-2.27 5.477-2.27 2.054 0 4.024.817 5.477 2.27 1.452 1.452 2.268 3.423 2.268 5.477z" clip-rule="evenodd"/>
    </g>
    <defs>
        <clipPath id="clip0">
            <path fill="#fff" d="M0 0H30.981V30.986H0z" transform="translate(.768 .848)"/>
        </clipPath>
    </defs>
</svg>
