<svg width="28" height="26" viewBox="0 0 28 26" fill="none" xmlns="http://www.w3.org/2000/svg">
<path d="M19.1684 15.4284C22.5367 11.0212 21.4102 4.91863 16.6539 1.79836C11.8977 -1.32192 5.31171 -0.278842 1.94428 4.12906C-1.42314 8.53621 -0.297449 14.6381 4.45959 17.7584C7.85437 19.9854 12.3427 20.1569 15.9233 18.1975L23.7034 25.3633C24.5434 26.1827 25.9411 26.2155 26.8254 25.4371C27.7097 24.6595 27.7451 23.3644 26.9059 22.545C26.8793 22.5189 26.8536 22.4951 26.8254 22.4704L19.1684 15.4284ZM10.5499 16.0964C6.79144 16.0972 3.74426 13.2759 3.74185 9.79327C3.74105 6.31064 6.78581 3.48711 10.5451 3.48562C14.2987 3.48413 17.3443 6.30095 17.3516 9.7791C17.358 13.2625 14.3148 16.0905 10.5547 16.0964C10.5531 16.0964 10.5523 16.0964 10.5499 16.0964Z" fill="white"/>
</svg>
