<svg width="89" height="89" viewBox="0 0 89 89" fill="none" xmlns="http://www.w3.org/2000/svg">
<path d="M61.1875 30.5938H25.0312V83.4375H61.1875V30.5938Z" fill="#AD6643"/>
<path d="M48.6719 40.4354C48.6719 34.9999 38.7101 30.5938 26.4219 30.5938C14.1336 30.5938 4.17188 34.9999 4.17188 40.4354C4.17188 42.931 6.27311 45.2094 9.73438 46.9442V77.875H43.1094V46.9442C46.5706 45.2094 48.6719 42.931 48.6719 40.4354Z" fill="#FBE9D8"/>
<path d="M19.4688 84.8281H9.22108C6.91317 84.8281 5.18219 82.6727 5.63483 80.3607C6.55143 75.6813 10.5761 72.3125 15.2503 72.3125H19.4688V84.8281Z" fill="#F7B030"/>
<path d="M72.3125 84.8281C79.2248 84.8281 84.8281 66.7726 84.8281 44.5C84.8281 22.2274 79.2248 4.17188 72.3125 4.17188H66.75V84.8281H72.3125Z" fill="#AD6643"/>
<path d="M79.2656 44.5C79.2656 66.7726 73.6614 84.8281 66.75 84.8281C62.1279 84.8281 58.0899 76.7521 55.9222 64.7405C55.76 63.8401 55.6082 62.9188 55.4668 61.9767C54.675 56.5224 54.2644 51.0196 54.2378 45.5082C54.2361 45.1727 54.2344 44.8372 54.2344 44.5C54.2344 43.869 54.239 43.2415 54.2483 42.6174C54.3075 37.5031 54.6994 32.398 55.4216 27.3345C55.5728 26.3031 55.7362 25.2978 55.9118 24.3186C58.0777 12.274 62.121 4.17188 66.75 4.17188C73.6614 4.17188 79.2656 22.2274 79.2656 44.5Z" fill="#C48669"/>
<path d="M30.5938 84.8281H17.2717C14.2715 84.8281 12.0211 81.4745 12.6095 77.8799C13.802 70.5998 19.0331 65.3594 25.1098 65.3594H30.5938V84.8281Z" fill="#E09F2C"/>
<path d="M50.0625 84.8281H60.3102C62.6181 84.8281 64.3491 82.6727 63.8964 80.3607C62.9799 75.6806 58.9552 72.3125 54.281 72.3125H50.0625V84.8281Z" fill="#F7B030"/>
<path d="M38.9375 84.8281H52.2595C55.2598 84.8281 57.5102 81.4745 56.9218 77.8799C55.7293 70.5998 50.4981 65.3594 44.4214 65.3594H38.9375V84.8281Z" fill="#E09F2C"/>
<path d="M43.9872 84.8282H25.544C24.9057 84.8282 24.2868 84.6086 23.7912 84.2063C23.2956 83.8039 22.9535 83.2434 22.8222 82.6187L21.1535 74.6737C19.6205 67.376 24.2348 60.2091 31.4093 58.7455C33.6246 58.2935 35.9084 58.2935 38.1236 58.7455C45.2973 60.2091 49.9116 67.376 48.3795 74.6737L46.7107 82.6187C46.5795 83.2437 46.2371 83.8045 45.7411 84.2068C45.2452 84.6092 44.6258 84.8286 43.9872 84.8282Z" fill="#F7B030"/>
<path d="M37.0351 40.2305C37.2054 40.3002 37.3878 40.3355 37.5718 40.3342C37.7558 40.3329 37.9378 40.2952 38.1071 40.2231C38.2764 40.151 38.4297 40.046 38.5581 39.9142C38.6865 39.7824 38.7875 39.6265 38.8553 39.4554C38.923 39.2843 38.9561 39.1015 38.9526 38.9175C38.9492 38.7335 38.9092 38.5521 38.8351 38.3836C38.761 38.2152 38.6542 38.0631 38.5209 37.9363C38.3877 37.8094 38.2305 37.7103 38.0586 37.6446C34.8381 36.3696 30.7057 35.6675 26.4219 35.6675C22.1381 35.6675 18.0056 36.3696 14.7851 37.6446C14.6132 37.7103 14.4561 37.8094 14.3228 37.9363C14.1895 38.0631 14.0827 38.2152 14.0086 38.3836C13.9345 38.5521 13.8946 38.7335 13.8911 38.9175C13.8877 39.1015 13.9208 39.2843 13.9885 39.4554C14.0562 39.6265 14.1572 39.7824 14.2857 39.9142C14.4141 40.046 14.5674 40.151 14.7367 40.2231C14.906 40.2952 15.0879 40.3329 15.2719 40.3342C15.4559 40.3355 15.6383 40.3002 15.8086 40.2305C18.7116 39.0815 22.4805 38.4487 26.4219 38.4487C30.3633 38.4487 34.1324 39.0815 37.0351 40.2305Z" fill="black"/>
<path d="M72.3125 2.78125H66.75C62.6883 2.78125 59.1688 7.20413 56.572 15.5715C55.3413 19.5374 54.3943 24.1666 53.7624 29.2031H25.0312V29.2236C19.4187 29.3723 14.1694 30.4161 10.1262 32.2046C5.38972 34.2996 2.78125 37.2227 2.78125 40.4354C2.78125 43.1977 4.74846 45.7853 8.34375 47.7824V73.364C6.23153 75.054 4.7879 77.439 4.27009 80.0941C4.12102 80.8438 4.14039 81.6172 4.32677 82.3585C4.51315 83.0998 4.86191 83.7905 5.34782 84.3805C5.81693 84.9547 6.40777 85.4175 7.07762 85.7354C7.74748 86.0533 8.4796 86.2184 9.22106 86.2188H60.3102C61.4372 86.219 62.5311 85.8373 63.4134 85.136C64.3909 85.8253 65.554 86.2027 66.75 86.2188H72.3125C76.3742 86.2188 79.8937 81.7959 82.4905 73.4285C84.8947 65.6817 86.2188 55.4079 86.2188 44.5C86.2188 33.5921 84.8947 23.3183 82.4905 15.5715C79.8937 7.20413 76.3742 2.78125 72.3125 2.78125ZM9.22106 83.4375C8.89027 83.4365 8.56384 83.362 8.26536 83.2194C7.96688 83.0768 7.70379 82.8697 7.49512 82.613C7.2707 82.3396 7.10983 82.0198 7.02412 81.6766C6.93841 81.3334 6.93002 80.9754 6.99954 80.6286C7.26651 79.2442 7.86983 77.9466 8.75636 76.8503C9.64289 75.7539 10.7854 74.8924 12.0833 74.3416C11.7045 75.4192 11.4214 76.528 11.2373 77.6553C10.896 79.662 11.3156 81.7238 12.4141 83.4375H9.22106ZM18.0781 83.4375H17.2717C16.4497 83.4375 15.6551 83.036 15.0365 82.3076C14.1216 81.2308 13.7274 79.6597 13.9819 78.105C14.6772 73.8545 16.8848 70.2966 19.8802 68.3489C19.3587 70.5185 19.3287 72.7773 19.7924 74.9601L21.4612 82.904C21.5004 83.085 21.5518 83.2631 21.6152 83.4371L18.0781 83.4375ZM21.3704 64.569C18.1988 65.6092 15.4825 67.935 13.6219 71.0458C12.7654 71.1747 11.9273 71.4047 11.125 71.7309V46.9442C11.125 46.6862 11.0532 46.4332 10.9177 46.2137C10.7822 45.9941 10.5882 45.8166 10.3575 45.701C7.26602 44.1511 5.5625 42.2811 5.5625 40.4354C5.5625 38.4202 7.6361 36.3475 11.2514 34.7482C15.2804 32.9658 20.6682 31.9844 26.4219 31.9844C32.1756 31.9844 37.5643 32.9658 41.5924 34.7482C45.208 36.3475 47.2812 38.4204 47.2812 40.4356C47.2812 42.2813 45.5777 44.1513 42.4862 45.7012C42.2556 45.8168 42.0616 45.9943 41.9261 46.2138C41.7906 46.4333 41.7188 46.6862 41.7188 46.9442V58.4921C40.6619 57.9891 39.5477 57.6166 38.4007 57.3829C36.0023 56.8906 33.5289 56.8906 31.1305 57.3829C29.2561 57.7645 27.4765 58.5156 25.8954 59.5922C24.3143 60.6689 22.9634 62.0496 21.9215 63.6538C21.7249 63.9531 21.5439 64.2596 21.3704 64.569ZM47.0169 74.3877L45.3481 82.3328C45.2814 82.6446 45.11 82.9242 44.8624 83.1251C44.6149 83.3261 44.3061 83.4363 43.9872 83.4375H25.544C25.2252 83.4363 24.9164 83.3261 24.6688 83.1251C24.4212 82.9242 24.2499 82.6446 24.1831 82.3328L22.5144 74.3877C22.1774 72.8149 22.1569 71.1909 22.4542 69.6102C22.7515 68.0295 23.3607 66.5238 24.2461 65.181C25.0873 63.8839 26.1785 62.7673 27.4558 61.8963C28.7332 61.0253 30.1712 60.4174 31.6859 60.108C33.7174 59.6911 35.8124 59.6911 37.8439 60.108C39.3587 60.4174 40.7967 61.0253 42.074 61.8963C43.3514 62.7673 44.4425 63.8839 45.2838 65.181C46.1694 66.5237 46.7788 68.0293 47.0764 69.61C47.3739 71.1907 47.3537 72.8149 47.0169 74.3877ZM54.4951 82.3076C53.8758 83.0365 53.0819 83.4375 52.2599 83.4375H47.9159C47.9792 83.2635 48.0307 83.0855 48.0699 82.9045L49.7387 74.9596C50.2027 72.7769 50.173 70.5181 49.6517 68.3484C52.6473 70.2952 54.8542 73.8542 55.5501 78.1046C55.8039 79.6593 55.4096 81.2299 54.4951 82.3076ZM48.1608 64.569C47.987 64.2596 47.8064 63.9531 47.6098 63.6538C46.7598 62.3579 45.7102 61.2047 44.5 60.2367V47.7824C48.0953 45.7853 50.0625 43.1977 50.0625 40.4354C50.0625 37.2227 47.454 34.2992 42.7176 32.2046C42.5469 32.129 42.3699 32.0572 42.1961 31.9844H53.4506C53.0513 35.9796 52.8438 40.1899 52.8438 44.5C52.8438 54.3308 53.9093 63.5832 55.8684 70.9773C54.0093 67.9006 51.3092 65.6015 48.1608 64.569ZM62.0361 82.6123C61.8275 82.8691 61.5645 83.0764 61.266 83.2191C60.9675 83.3618 60.641 83.4364 60.3102 83.4375H57.1171C58.2157 81.7238 58.6353 79.6619 58.294 77.6551C58.1097 76.5279 57.8266 75.4191 57.4479 74.3416C58.7459 74.8924 59.8884 75.7539 60.775 76.8503C61.6615 77.9467 62.2648 79.2443 62.5317 80.6288C62.6012 80.9756 62.5928 81.3335 62.5071 81.6767C62.4214 82.0198 62.2605 82.3396 62.0361 82.613V82.6123ZM66.75 83.4375C66.1393 83.4192 65.547 83.225 65.0441 82.8781C65.3698 81.9875 65.4449 81.0245 65.2612 80.0941C64.9237 78.3582 64.1869 76.7247 63.109 75.3228C62.0311 73.9209 60.6417 72.7891 59.0508 72.017C58.347 69.6086 57.7738 67.164 57.3336 64.6938C59.2538 64.1549 63.5131 63.4295 69.0915 65.2888C69.2664 65.3537 69.4525 65.3828 69.6389 65.3742C69.8252 65.3657 70.0079 65.3198 70.1762 65.2392C70.3444 65.1586 70.4947 65.0449 70.6181 64.9051C70.7415 64.7652 70.8355 64.6019 70.8945 64.4249C70.9535 64.248 70.9763 64.0609 70.9616 63.875C70.9468 63.689 70.8948 63.5079 70.8086 63.3425C70.7224 63.1771 70.6038 63.0307 70.4598 62.912C70.3159 62.7933 70.1495 62.7049 69.9707 62.6518L69.9552 62.6468L69.9356 62.6407C63.9498 60.6538 59.2973 61.2915 56.8738 61.9308C56.0731 56.4709 55.6569 50.9614 55.6285 45.4432C57.3283 44.865 61.7258 43.8299 67.7005 45.8214C67.8754 45.8863 68.0615 45.9154 68.2479 45.9069C68.4342 45.8983 68.617 45.8524 68.7852 45.7718C68.9534 45.6912 69.1037 45.5776 69.2271 45.4377C69.3505 45.2978 69.4446 45.1345 69.5036 44.9576C69.5626 44.7806 69.5854 44.5936 69.5706 44.4076C69.5558 44.2216 69.5038 44.0406 69.4176 43.8751C69.3314 43.7097 69.2128 43.5633 69.0688 43.4446C68.9249 43.326 68.7586 43.2375 68.5797 43.1845L68.5644 43.1796L68.5443 43.1732C62.6909 41.2308 58.1125 41.8644 55.6391 42.5378C55.7007 37.439 56.0977 32.3497 56.8274 27.303C58.4125 26.7815 62.9538 25.6991 69.0908 27.7447C69.2657 27.8096 69.4518 27.8387 69.6382 27.8301C69.8245 27.8216 70.0072 27.7757 70.1755 27.6951C70.3437 27.6145 70.494 27.5009 70.6174 27.361C70.7408 27.2211 70.8348 27.0578 70.8938 26.8808C70.9528 26.7039 70.9756 26.5168 70.9609 26.3309C70.9461 26.1449 70.8941 25.9638 70.8079 25.7984C70.7217 25.633 70.6031 25.4866 70.4591 25.3679C70.3152 25.2493 70.1488 25.1608 69.97 25.1077L69.9545 25.1027L69.9349 25.0966C64.3041 23.2276 59.8548 23.6811 57.3294 24.2739C57.806 21.6144 58.4398 18.9854 59.2272 16.4009C61.3335 9.6127 64.1454 5.5625 66.75 5.5625C69.3546 5.5625 72.1665 9.6127 74.2717 16.3958C76.5955 23.884 77.875 33.8638 77.875 44.5C77.875 55.1362 76.5955 65.1169 74.2717 72.6042C72.1665 79.3873 69.3546 83.4375 66.75 83.4375ZM79.8342 72.6042C77.729 79.3873 74.9171 83.4375 72.3125 83.4375H71.9893C73.8634 81.294 75.5297 77.9343 76.928 73.4285C79.3322 65.6817 80.6562 55.4079 80.6562 44.5C80.6562 33.5921 79.3322 23.3183 76.928 15.5715C75.5297 11.0657 73.8634 7.70597 71.9893 5.5625H72.3125C74.9171 5.5625 77.729 9.6127 79.8342 16.3958C82.158 23.884 83.4375 33.8638 83.4375 44.5C83.4375 55.1362 82.158 65.1169 79.8342 72.6042Z" fill="black"/>
</svg>
